<svg xmlns="http://www.w3.org/2000/svg" viewBox="0 0 1200 760" role="img" aria-label="Abstract market intelligence map">
  <rect width="1200" height="760" fill="#f4efe7"/>
  <path d="M0 600 C210 520 300 650 520 570 C760 482 870 360 1200 420 L1200 760 L0 760 Z" fill="#0e3b43"/>
  <path d="M0 470 C250 390 340 500 540 420 C760 332 920 230 1200 285 L1200 760 L0 760 Z" fill="#c14953" opacity=".88"/>
  <circle cx="310" cy="245" r="110" fill="#f6c85f"/>
  <g fill="none" stroke="#0e3b43" stroke-width="6" opacity=".8">
    <path d="M185 190 H530 V490 H185 Z"/>
    <path d="M260 490 V590 M430 490 V590 M260 590 H430"/>
    <path d="M245 410 L335 330 L405 370 L480 260"/>
  </g>
  <g fill="#0e3b43">
    <circle cx="245" cy="410" r="12"/>
    <circle cx="335" cy="330" r="12"/>
    <circle cx="405" cy="370" r="12"/>
    <circle cx="480" cy="260" r="12"/>
  </g>
  <text x="680" y="240" fill="#0e3b43" font-family="Georgia, serif" font-size="70" font-weight="700">Market Map</text>
  <text x="684" y="305" fill="#425c5a" font-family="Arial, sans-serif" font-size="28">Signals, incentives, behavior</text>
</svg>
